/* XPM */
static char *arbre[] = {
/* columns rows colors chars-per-pixel */
"32 28 180 2 ",
"   c #183C0F",
".  c #343E0E",
"X  c #383E13",
"o  c #461A04",
"O  c #53280D",
"+  c #5D2B09",
"@  c #5C2805",
"#  c #45300A",
"$  c #4B2817",
"%  c #512C15",
"&  c #4D3A15",
"*  c #5C341C",
"=  c #68330D",
"-  c #6E3B16",
";  c #683513",
":  c #4F3122",
">  c #563827",
",  c #563829",
"<  c #15480E",
"1  c #184711",
"2  c #164D10",
"3  c #175013",
"4  c #1E5213",
"5  c #175E18",
"6  c #20450F",
"7  c #2D450E",
"8  c #2D500D",
"9  c #2A4414",
"0  c #2E4B15",
"q  c #2A4D1C",
"w  c #254110",
"e  c #314B1A",
"r  c #2B531C",
"t  c #24551B",
"y  c #385813",
"u  c #06600E",
"i  c #15631A",
"p  c #1C6D1C",
"a  c #1B661B",
"s  c #0D7A1D",
"d  c #0B6718",
"f  c #26690B",
"g  c #36750E",
"h  c #256D15",
"j  c #24641A",
"k  c #286E16",
"l  c #306811",
"z  c #247214",
"x  c #2B7214",
"c  c #207812",
"v  c #2B751A",
"b  c #2E791A",
"n  c #337C13",
"m  c #3B7C14",
"M  c #347518",
"N  c #1D5A23",
"B  c #2E4A29",
"V  c #3E4B29",
"C  c #3D5020",
"Z  c #1A6A21",
"A  c #256923",
"S  c #2C7920",
"D  c #2D6530",
"F  c #317439",
"G  c #484316",
"H  c #476813",
"J  c #4B5429",
"K  c #4A462C",
"L  c #634434",
"P  c #4B7F29",
"I  c #3A7642",
"U  c #5B5C45",
"Y  c #7A5A48",
"T  c #5C684A",
"R  c #577952",
"E  c #686D5F",
"W  c #796559",
"Q  c #79705F",
"!  c #806A63",
"~  c #947D6D",
"^  c #37840F",
"/  c #2B851C",
"(  c #3C8513",
")  c #36811A",
"_  c #3C8518",
"`  c #148924",
"'  c #238120",
"]  c #318222",
"[  c #418B0C",
"{  c #46940E",
"}  c #438B14",
"|  c #408A18",
" . c #4A9216",
".. c #4D9A15",
"X. c #4C941A",
"o. c #469517",
"O. c #549D1E",
"+. c #57A11E",
"@. c #5FAA19",
"#. c #4E8B28",
"$. c #579D20",
"%. c #44823A",
"&. c #5BA422",
"*. c #5FA824",
"=. c #60A723",
"-. c #64AB25",
";. c #69AE25",
":. c #65AC28",
">. c #68AF28",
",. c #6DB229",
"<. c #6FB622",
"1. c #75B92A",
"2. c #77B92B",
"3. c #7FC12E",
"4. c #518D47",
"5. c #518457",
"6. c #6A9E4E",
"7. c #688457",
"8. c #6FA54B",
"9. c #71AA48",
"0. c #5C8161",
"q. c #789069",
"w. c #7F8F77",
"e. c #768A74",
"r. c #7D9577",
"t. c #678F68",
"y. c #81C22E",
"u. c #968680",
"i. c #958D8B",
"p. c #879085",
"a. c #8E9B90",
"s. c #9C9092",
"d. c #A08B83",
"f. c #A9988F",
"g. c #AB9F9C",
"h. c #B19F96",
"j. c #91A48E",
"k. c #99BA83",
"l. c #9CA497",
"z. c #9CB49E",
"x. c #B9A498",
"c. c #A7AFA8",
"v. c #ABADAA",
"b. c #B8AEAC",
"n. c #ACB5AB",
"m. c #B7B0AE",
"M. c #BAB9BC",
"N. c #B7B7B7",
"B. c #C3A99B",
"V. c #C0B7B8",
"C. c #C0B9B9",
"Z. c #C9BCB5",
"A. c #A1C08D",
"S. c #B9C3BA",
"D. c #CDC2B8",
"F. c #CCC1C0",
"G. c #C4CBC4",
"H. c #CECBCB",
"J. c #C3C6C7",
"K. c #D5CCCA",
"L. c #CCD0CB",
"P. c #CECFD4",
"I. c #D3D6D4",
"U. c #DAD4D1",
"Y. c #DEDDDE",
"T. c #D4D6DB",
"R. c #E0DEDF",
"E. c #E1E0DF",
"W. c #DFDEE0",
"Q. c #E1DFE1",
"!. c #DCE2E9",
"~. c #E3E1E4",
"^. c #E8E5E7",
"/. c #E7E7EB",
"(. c #EAE5EB",
"). c #EAE9EC",
"_. c #EDEAF0",
"`. c #F1EBF1",
"'. c #F0F3F7",
"]. c #F5F8FE",
/* pixels */
"~.Q.~.Y.!.E.R.E.~.Y.~.!.R.R.E.Y.Y.~.E.Y.Q.~.W.Y.~.Y.Q.~.R.Y.E.~.",
"Y.~.Y.~.R.R.~.E.Y.~.Y.E.E.~.Y.^.^.Y.Y.Y.W.W.W.~.Y.~.R.R.R.~.~.W.",
"~.~.Y.Y.Q.E.R.R.~.Y.Y.^.Q.L.^.G.G.).).^.^.W.Y.Q.!.R.R.~.~.W.Y.~.",
"Y.Q.Y.~.W.Q.Y.~.Y.Y.).I.4.j r.%.j j.n.S.H.(.^.Y.R.R.Q.R.Y.Q.Q.Y.",
"Y.~.Y.~.~.Y.~.Y.~.Q.G.%.c _ ..X._ ^ x z D 0.c.).Q.Q.Q.Q.Q.Q.Q.Q.",
"~.Y.~.Q.Y.~.Y.).S.I A / b &.3.-.;.;._ h i u N M.(.Q.Q.Q.Q.Q.Q.Q.",
"Y.~.Y.Q.Q.Q.(.S.F s p S | 1.3.:.,.*.X.) S S i N a.Q.Q.Q.Q.Q.Q.Q.",
"~.Y.~.Q.Y.^.z.Z d Z k v ( -.-.-.$.X.} n ] ] a ' N M.(.Q.Q.Q.Q.Q.",
"Y.!.R.R.Y.(.t.` Z h n k x X.&.+.X.} ^ b ) k 5 p N M.^.Q.Q.Q.Q.Q.",
"~.Y.E.R.Q.^.5.d ] +.+. .x n } ( ( ^ n X.>._ n ( f p.(.R.Q.Q.R.Q.",
"Y.~.E.R.Q.Q.6.^ $.y.:.+.l   0 t 4 j x ;.y.&.O.-.X.P M.~.R.Q.Q.R.",
"~.E.E.Y.^.A.@.1.&.;.+.n 1 r G r 0 q y ;.,.-.2.2.:. .7.Q.R.R.R.~.",
"Y.~.E.Y.~.9.<.2.-.O.g 1 . 4 q X q e 8  .&.=.2.>.$.} w.).Y.Y.~.Y.",
"~.Y.~.Y.^.k...>.O. .H r C & E ! Q K K y l  .&.$.$.m v.^.Y.~.E.~.",
"Y.~.Y.Y.~.T.8.( n l G 7 T F.Y , L s.U.J 0 H o...[ g l.^.Y.E.E.E.",
"~.Y.~.Y.W.~.Y.R 2 3 1 U Y i.Z.o > !.B.# 7 9 f H #.q.Q.E.R.Q.Y.E.",
"R.Q.Q.Q.Q.R.Q.Q.e.e.Q W.U.u.! + L ~ Y f.T 9 B n.Q.Q.Q.Q.Q.Q.Q.Q.",
"Q.Q.R.Q.Q.Q.R.Q.(.`.`.Q.Q.`.h.@ O W W./.~.J.T.^.Q.Q.Q.Q.Q.Q.Q.Q.",
"Q.Q.Q.R.Q.Q.Q.Q.W.W.Q.Q.Q.Q.U.; : T./.T.Q.^.Q.Q.Q.Q.Q.Q.Q.Q.Q.Q.",
"~.Q.Q.Q.Q.R.Q.Q.W.W.Q.Q.Q.Q.U.- > P.~.Q.Q.Q.Q.Q.Q.Q.Q.Q.Q.Q.Q.Q.",
"R.Y.~.Y.Q.Q.Q.Q.Q.Q.Q.Q.~.Q.K.- $ J.~.Q.Q.Q.Q.Q.Q.Q.Q.Q.Q.Q.Q.Q.",
"R.~.Y.~.Q.Q.Q.Q.Q.Q.Q.Q.~.Q.K.; $ M./.W.Q.Q.Q.Q.Q.Q.~.Q.Q.Q.Q.Q.",
"R.!.R.~.Q.Q.Q.Q.Q.Q.Q.Q.Q.Q.V.= $ M./.W.Q.Q.Q.Q.Q.Q.Q.Q.Q.Q.Q.Q.",
"R.Y.~.Y.Q.Q.Q.Q.Q.Q.Q.Q.(.`.x.@ O i.'.~.Q.W.Q.Q.~.Q.Q.Q.Q.Q.Q.Q.",
"R.E.Y.~.Y.Q.R.Q.Q.Q.Q.Q.F.d.: o o o ! M.Q.Q.Q.Q.Q.Q.Q.Q.Q.Q.Q.Q.",
"R.E.~.Y.E.Q.Q.Q.W.W.Q.Q.H.g.b.b.V.V.V.F.Q.Q.Q.Q.Q.Q.Q.Q.Q.Q.Q.Q.",
"~.R.~.Y.~.Q.R.Q.W.W.W.W.(.`.(.(.(.(.(.(.Q.Q.Q.Q.Q.Q.Q.~.Q.Q.Q.Q.",
"Y.R.Y.~.R.R.Q.Q.W.(.Q.W.W.T.W.W.W.W.W.Q.Q.Q.W.W.Q.Q.Q.Q.(.Q.Q.Q."
};
