/* XPM */
static char *collectible[] = {
/* columns rows colors chars-per-pixel */
"32 32 42 1 ",
"  c #74CCF6",
". c #7DCFF6",
"X c #7ED1F6",
"o c #84CEF6",
"O c #84D2F6",
"+ c #8CD5F6",
"@ c #8DD9F7",
"# c #93D6F6",
"$ c #99D7F6",
"% c #94DAF7",
"& c #9ADBF7",
"* c #93D6F8",
"= c #94DBF8",
"- c #9BDDF8",
"; c #A2DBF7",
": c #ABDDF7",
"> c #A4DCF8",
", c #ABDFF8",
"< c #B4DFF6",
"1 c #B2DFF8",
"2 c #9EE1F7",
"3 c #9EE1F8",
"4 c #A5E5F7",
"5 c #A4E4F8",
"6 c #AFE0F8",
"7 c #B2E1F7",
"8 c #BBE1F7",
"9 c #B4E1F8",
"0 c #BBE3F8",
"q c #C4E5F7",
"w c #CCE8F7",
"e c #C2E6F9",
"r c #C6E8FA",
"t c #CBEAFA",
"y c #D4EDFA",
"u c #D8EFFB",
"i c #DCF1FB",
"p c #E3F3FC",
"a c #EAF6FD",
"s c #EFF8FD",
"d c #F3FAFD",
"f c #FFFFFF",
/* pixels */
"ffffffffffffffffffffffffffffffff",
"ffffffffffffffffffffffffffffffff",
"fffffffffffffffwwfffffffffffffff",
"ffffffffffffdfa#$dfdffffffffffff",
"ffffffffffffa;;-%7:pffffffffffff",
"fffffffffffff> =@ :fffffffffffff",
"fffffffffffffa#=@#sfffffdfffffff",
"ffffffdwffdyuyy@#teteffd8dffffff",
"ffffdda*iftOo#y@>rXXOaftoiiaffff",
"fffd$=* :p#O@77=&u&@X$a& #+&dfff",
"ffffe=3@*y&$@&#5-;#=9ry@=5#iffff",
"ffffd++-@9yy#X=45+O#96#@=X-fffff",
"fffs1oO&*@==+=4@=52=22#9;*+0dfff",
"fffdaaapu&54553+@2254#ertdddffff",
"fffffff;;r#4@O+OO+X22&rO;fffffff",
"ffffffyO+&O-5+O=@O%5@O+@.0ffffff",
"ffffff0X@++@5#O@@O%4@+;+Oiffffff",
"fffffff>Or&22o@+O+.%5#y-;fffffff",
"fffdsddtre#42=3@+22445&pppaaffff",
"fffd9O=>6#22224#@42@#=@#$+X7dfff",
"fffff&.=@#;6+O+54%X+rw6@=+@dffff",
"ffffp#3=@yr7#@#24#$+#-y#@5#effff",
"ffff&O# &a#X%&r#277++#p6 ##$dfff",
"ffffaiiotfp+XOr-+y#OXtfi+asdffff",
"ffffffd<ffdetrw#+yyiydffqdffffff",
"ffffffdsfffffs&%=#afffffdfffffff",
"fffffffffffff: @= ;fffffffffffff",
"ffffffffffffi::#2;;iffffffffffff",
"ffffffffffffafd&+sddffffffffffff",
"fffffffffffffffwwfffffffffffffff",
"ffffffffffffffffffffffffffffffff",
"ffffffffffffffffffffffffffffffff"
};
