/* XPM */
static char *exit[] = {
/* columns rows colors chars-per-pixel */
"32 32 197 2 ",
"   c #1E4671",
".  c #274D72",
"X  c #27537E",
"o  c #2F5A8B",
"O  c #375F8B",
"+  c #2F618C",
"@  c #3B6180",
"#  c #2D6394",
"$  c #3D6593",
"%  c #3E6C95",
"&  c #3C6E9B",
"*  c #3F729A",
"=  c #3D74A2",
"-  c #456485",
";  c #56728B",
":  c #436B96",
">  c #456E9B",
",  c #496F98",
"<  c #43719A",
"1  c #557898",
"2  c #4B75A1",
"3  c #487CA2",
"4  c #5077A4",
"5  c #537BA3",
"6  c #577FA8",
"7  c #67849C",
"8  c #788A96",
"9  c #4B82AB",
"0  c #5B81A4",
"q  c #5483AA",
"w  c #5B83AD",
"e  c #588AAB",
"r  c #5D8EA9",
"t  c #4A85B1",
"y  c #4E8AB3",
"u  c #5680B1",
"i  c #5B85B3",
"p  c #598FB6",
"a  c #5C92B5",
"s  c #5C98BD",
"d  c #6486A3",
"f  c #6C8BA5",
"g  c #6286AC",
"h  c #6489AC",
"j  c #688EAF",
"k  c #7B94AD",
"l  c #6087B0",
"z  c #638BB3",
"x  c #6A8FB4",
"c  c #648DBA",
"v  c #6295B6",
"b  c #6D92B4",
"n  c #6792BF",
"m  c #6C94BB",
"M  c #619ABE",
"N  c #7396B2",
"B  c #7599B5",
"V  c #7B9CB5",
"C  c #7097B9",
"Z  c #749ABC",
"A  c #7D9FBE",
"S  c #66A0BB",
"D  c #73A3BB",
"F  c #7BA0BD",
"G  c #5C99C3",
"H  c #6693C1",
"J  c #6A95C1",
"K  c #619DC5",
"L  c #6D98C4",
"P  c #739DC3",
"I  c #779FC5",
"U  c #66A1C4",
"Y  c #6AA4C3",
"T  c #64A3C9",
"R  c #69A5C8",
"E  c #6AAACD",
"W  c #75A5C9",
"Q  c #7DA6CC",
"!  c #7CABCA",
"~  c #7DB4CC",
"^  c #7EB8CF",
"/  c #6AA7D0",
"(  c #6DADD3",
")  c #71AFD4",
"_  c #7AB3D2",
"`  c #78B7D4",
"'  c #75B5D9",
"]  c #7CBBD9",
"[  c #7CBEE0",
"{  c #7FC0D7",
"}  c #8499A4",
"|  c #839FB6",
" . c #89A0AC",
".. c #93A2AA",
"X. c #85A2B4",
"o. c #8BA5B7",
"O. c #84A4BD",
"+. c #89A6BB",
"@. c #8DAABD",
"#. c #98ACB6",
"$. c #94ADBC",
"%. c #99B0B7",
"&. c #95B1BF",
"*. c #9CB2BD",
"=. c #A0B1BB",
"-. c #83A6C2",
";. c #85AAC6",
":. c #8DACC2",
">. c #84AACB",
",. c #93AFC0",
"<. c #8BB2CA",
"1. c #8BB9CA",
"2. c #96B3C5",
"3. c #9AB6C4",
"4. c #93B5CD",
"5. c #99B6C8",
"6. c #96BACD",
"7. c #9CBACA",
"8. c #8DB4D3",
"9. c #82BCD5",
"0. c #8AB5D8",
"q. c #92B6D3",
"w. c #97BBD2",
"e. c #9BBDD3",
"r. c #96BEDB",
"t. c #99BEDC",
"y. c #A5BAC4",
"u. c #AABCC4",
"i. c #A3BDCC",
"p. c #ABBEC8",
"a. c #97C0CF",
"s. c #9FC4CF",
"d. c #8AC3D7",
"f. c #8CC4DA",
"g. c #91C4D8",
"h. c #92C8D9",
"j. c #A7C4CE",
"k. c #ACC3CD",
"l. c #B4C3CB",
"z. c #A4C2D3",
"x. c #AAC5D3",
"c. c #AAC7D6",
"v. c #AACBDD",
"b. c #B0C7D4",
"n. c #B4CCD5",
"m. c #BBCCD4",
"M. c #B4CEDA",
"N. c #B9CED9",
"B. c #A3D1DC",
"V. c #BBD0D7",
"C. c #B7D1DA",
"Z. c #BBD2DC",
"A. c #82C4E4",
"S. c #87CAE7",
"D. c #95D3E4",
"F. c #93D5EA",
"G. c #A5C9E3",
"H. c #A5CCE3",
"J. c #A8D3E5",
"K. c #B5D4E1",
"L. c #B9D5E3",
"P. c #BCDAE3",
"I. c #B5D6EC",
"U. c #9EE1EF",
"Y. c #C2CFD3",
"T. c #C4D4DB",
"R. c #C7D8DD",
"E. c #C2D7E0",
"W. c #C5DBE3",
"Q. c #CCDDE3",
"!. c #C3DFEA",
"~. c #D1DDE1",
"^. c #CCE1E6",
"/. c #C5E3EC",
"(. c #CCE4EC",
"). c #D2E1E5",
"_. c #D8E4E7",
"`. c #D3E5E9",
"'. c #DAE7EA",
"]. c #D6EAED",
"[. c #DDEBEE",
"{. c #C9E6F1",
"}. c #CAE8F2",
"|. c #D3ECF3",
" X c #DBF2F5",
".X c #DDF3F9",
"XX c #E1ECEE",
"oX c #E0EFF2",
"OX c #E3F3F5",
"+X c #EAF2F4",
"@X c #E3F6F8",
"#X c #E9F7F8",
"$X c #E6FAFA",
"%X c #EAFDFD",
"&X c #F3FDFE",
"*X c #F9FFFF",
"=X c white",
/* pixels */
"=X=X=X=X=X=X=X=X=X=X=X=X=X=X=X=X=X=X=X=X=X=X=X=X=X=X=X=X=X=X=X=X",
"=X=X=X=X=X=X=X=X=X=X=X=X=X=X=X=X=X=X=X=X=X=X=X=X=X=X=X=X=X=X=X=X",
"=X=X=X=X=X=X=X=X=X=X=X=X=X=X=Xl.y.=X=X=X=X=X=X=X=X=X=X=X=X=X=X=X",
"=X=X=X=X=X=X=X=X=X=X=X=X#.m.+X#X|.v.N f =X=X=X=X=X=X=X=X=X=X=X=X",
"=X=X=X=X=X=X=X=X=X=X..~.R.T.R.R.Z.4.A A x d =X=X=X=X=X=X=X=X=X=X",
"=X=X=X=X=X=X=X=X=XY.u.p.XX+XQ.Q.R.^.v.q.h 6 V =X=X=X=X=X=X=X=X=X",
"=X=X=X=X=X=X=X=X%.~.XXl.V.y.x.c.k.i.+.-.;.>.u h =X=X=X=X=X=X=X=X",
"=X=X=X=X=X=X=Xl.R.l.m.OX`.[.N.T.].Z.E.!.>.>.g 5 g =X=X=X=X=X=X=X",
"=X=X=X=X=X=X*.Y.'.XXn.k.i.T.c.Q.].M.:.:.| B >.m 5 N =X=X=X=X=X=X",
"=X=X=X=X=X=.~.%.m.&X_.'.`.i.m.l.i.k.k.n.K.t.>.P , x k =X=X=X=X=X",
"=X=X=X=X} k._._.3.x.i.oX XT.&X|.R.|.W.!.q.;.d C z l x =X=X=X=X=X",
"=X=X=X=Xk.%.V.#XR.'.k.$.i.o.Z.z.+.i.+.:.,.4.A q.L 4 g | =X=X=X=X",
"=X=X=X8 T.k.*.j.~.*X XN.XXk.R.^.3.n./.k.{.J.>.I c w l Z =X=X=X=X",
"=X=X=X*.k.'.R.k.b.Z.C.b.$XW.[.%XL.W.|.w.e.q.C x z P H z 7 =X=X=X",
"=X=X=XR.o.Z.C.'.n.@.y.&.7.$.i.7.+.@.4.2.5.-.N.t.J m m 6 N =X=X=X",
"=X=Xz.C.b.X. .=.l.V.7.2.N.OX].i.`.^.b.OX{.q.t.0.L 5 5 6 C =X=X=X",
"g.D.1.p.Q.T.Q.u.m.Z.P.4.$.@X|.M.OX}.c.|.I.;.Z m b C c g x D ] =X",
"Q.d.b.Q.Q.Q.).^.i.i.V 4.B +.z.| 7.z.X.s.-.B -.I O.t.H w g e E [ ",
"J.B.Z.M.f ; | Q.x.5.e.t.t.+.[.(.x.p.(.P.8.c.I.0.F t.H 4 1 0 = y ",
"f.C.OXN % $ . *. X:.V x m 1 (.$X!.Q.%X{.r.w.G.0.x ;.w w i w = = ",
"1.n. XZ 2 O   ; T.3.N P H 5 <.|.H.N..XI.0.>.r.P 5 6 x c i 5 t G ",
"F.a.z.0 > $ o - [.}.>.W H 4 5 A X.V 6.q.F d +.8.Q c i 6 3 & p U ",
"U.P.P.x u $ X @ )./.m u w 2 C -.!.z.:.L.H.<.e.G.W 6 : < 9 p q =X",
"U.1.z.w < + # % k.3.5 6 c w m -.{.H.5.{.H.>.j Z 2 & 9 K E K 9 =X",
"{ f.! s E ( T M ].L.n u 4 % % , b v 0 D z 3 * 9 p W ] ' G 3 =X=X",
"=X=X1.~ ^ f.F.` 6.:.1 % * y s U U ] ` E / ' ' M =Xa.D.] K q =X=X",
"=X=X=X=X=X=Xh.f.g.Y y T ) ' U a S f.S.` S.S.A.R a r =X=X=X=X=X=X",
"=X=X=X=X=X=X=X=Xa.9._ ` Y =X=X=X=X=X=XY ) ] 9.A.) y =X=X=X=X=X=X",
"=X=X=X=X=X=X=X=X=X=X=X=X=X=X=X=X=X=X=X=X=X=Xr a e =X=X=X=X=X=X=X",
"=X=X=X=X=X=X=X=X=X=X=X=X=X=X=X=X=X=X=X=X=X=X=X=X=X=X=X=X=X=X=X=X",
"=X=X=X=X=X=X=X=X=X=X=X=X=X=X=X=X=X=X=X=X=X=X=X=X=X=X=X=X=X=X=X=X",
"=X=X=X=X=X=X=X=X=X=X=X=X=X=X=X=X=X=X=X=X=X=X=X=X=X=X=X=X=X=X=X=X"
};
