/* XPM */
static char *floor[] = {
/* columns rows colors chars-per-pixel */
"32 32 25 1 ",
"  c #ADDFEF",
". c #AEE0F0",
"X c #B3E2F0",
"o c #BAE4F2",
"O c #BFE7F3",
"+ c #C1E7F3",
"@ c #C7E9F4",
"# c #CBEBF5",
"$ c #CFEDF6",
"% c #D2EEF7",
"& c #D6EFF7",
"* c #D7F0F7",
"= c #D8F0F8",
"- c #DBF1F8",
"; c #DEF2F9",
": c #E1F3F9",
"> c #E4F5FA",
", c #E6F6FA",
"< c #E9F7FB",
"1 c #ECF8FB",
"2 c #EFF9FC",
"3 c #F2FAFC",
"4 c #F6FBFD",
"5 c #F9FCFE",
"6 c white",
/* pixels */
"66666666666666666666666666666666",
"66666666666666666666666666666666",
"66666666666666666666666666666666",
"66666666666666666666666666666666",
"66666666666666666666666666666666",
"66666666666666666666666666666666",
"66666666666666666666666666666666",
"66666666666666666666666666666666",
"66666666666666666666666666666666",
"66666666666666666666666666666666",
"66666666666666666666666666666666",
"66666666666666666666666666666666",
"66666666666666666666666666666666",
"66666666666666666666666666666666",
"66666666666666666666666666666666",
"66666666666666666666666666666666",
"66666666666666666666666666666666",
"66666666666666666666666666666666",
"66666666666666666666666666666666",
"66666666666666666666666666666666",
"6666666666666666666666666&&:,666",
"66o+#%&&;;&%%%&&-;::,<<222,,<<36",
" Xo+$&:,<,,:;;;:;;:::,,,,,>>,,,3",
"  XoO@#$%%&&&;&&--**%$&-;,,,<,,;",
"++OOOO$$;-%&######$&***;:<2<3335",
"*-*%%*-*&&&&&%%%$&##$%*&&&*-**--",
"OOOO++O+++++#O@###########$##$$$",
"$$%%&$$*&&&&&&&&&&****-&-&-*-*--",
":<:,>::>,,:,:,,<>>><,,,<<<,<,<,<",
"3<3133333<3333333333323333333333",
"56566556656566636366566666656666",
"66666666666666666666666666666666"
};
