/* XPM */
static char *player[] = {
/* columns rows colors chars-per-pixel */
"32 32 188 2 ",
"   c #382218",
".  c #3B2C25",
"X  c #262525",
"o  c #492C1D",
"O  c #422C21",
"+  c #4C362B",
"@  c #4D392E",
"#  c #403630",
"$  c #4A3F37",
"%  c #573A2A",
"&  c #4B423B",
"*  c #584336",
"=  c #6C432A",
"-  c #7C4D2E",
";  c #664633",
":  c #574C44",
">  c #595856",
",  c #67554A",
"<  c #705644",
"1  c #6C5D54",
"2  c #715D51",
"3  c #6E6156",
"4  c #71665D",
"5  c #7C685C",
"6  c #5B6B71",
"7  c #686867",
"8  c #686562",
"9  c #766C65",
"0  c #7A736D",
"q  c #74716B",
"w  c #7B7975",
"e  c #747B7B",
"r  c #7B7874",
"t  c #6A777A",
"y  c #855738",
"u  c #935E3A",
"i  c #92603E",
"p  c #D57B3B",
"a  c #87654D",
"s  c #9A6540",
"d  c #9D6944",
"f  c #896B57",
"g  c #986F52",
"h  c #97735A",
"j  c #A4724D",
"k  c #AB7751",
"l  c #AD7D5A",
"z  c #81776F",
"x  c #897061",
"c  c #857B74",
"v  c #847F7A",
"b  c #8C837D",
"n  c #82817F",
"m  c #A6866E",
"M  c #B38B6E",
"N  c #AC8E77",
"B  c #B5947A",
"V  c #C48358",
"C  c #C59D7E",
"Z  c #D8976A",
"A  c #587785",
"S  c #5C7E8D",
"D  c #577B8B",
"F  c #607680",
"G  c #607E8B",
"H  c #6A8189",
"J  c #7E8080",
"K  c #75868D",
"L  c #618493",
"P  c #658B9A",
"I  c #688A98",
"U  c #768C94",
"Y  c #71919D",
"T  c #6D92A1",
"R  c #6E9BAC",
"E  c #7395A2",
"W  c #759AA9",
"Q  c #7CA4B4",
"!  c #7DA8B9",
"~  c #7EAEC0",
"^  c #8D8A86",
"/  c #858D8E",
"(  c #898A88",
")  c #968F89",
"_  c #9C948E",
"`  c #8B9293",
"'  c #80969E",
"]  c #88979D",
"[  c #919392",
"{  c #BD9D8A",
"}  c #A49E9A",
"|  c #A9A39D",
" . c #839FAB",
".. c #8A9EA4",
"X. c #939EA1",
"o. c #83A1AD",
"O. c #8AA1AC",
"+. c #98A5A9",
"@. c #83ACBC",
"#. c #8FA7B1",
"$. c #93ACB6",
"%. c #9CAFB7",
"&. c #97B1BA",
"*. c #A1A8AB",
"=. c #A9ABA9",
"-. c #B1ADA9",
";. c #B7ADA4",
":. c #B2B2AE",
">. c #A7B0B1",
",. c #A1B4BB",
"<. c #BBB6B2",
"1. c #B5BABB",
"2. c #B9BAB7",
"3. c #C7A993",
"4. c #F2BD9E",
"5. c #CEBAAC",
"6. c #D1BAAA",
"7. c #BCC0BE",
"8. c #FCC09B",
"9. c #D6C6B8",
"0. c #E6C3A9",
"q. c #84B2C3",
"w. c #8BB4C4",
"e. c #86B6C9",
"r. c #88B7C8",
"t. c #8EBACB",
"y. c #94B6C4",
"u. c #93BCCB",
"i. c #9ABECB",
"p. c #9DB8C2",
"a. c #A7BDC5",
"s. c #98C0CF",
"d. c #9DC4D2",
"f. c #9DC9DB",
"g. c #97C5D6",
"h. c #A0C1CD",
"j. c #BAC6CA",
"k. c #A4C8D6",
"l. c #A4CCDC",
"z. c #AAC8D4",
"x. c #B5CCD5",
"c. c #B9CFD8",
"v. c #BECCD2",
"b. c #ACD1DF",
"n. c #A9D2E1",
"m. c #B8D6E1",
"M. c #C2C4C1",
"N. c #CAC7C4",
"B. c #CBC9C5",
"V. c #CDCDCA",
"C. c #C5CAC9",
"Z. c #D5CCC6",
"A. c #D3D1CE",
"S. c #CBD2D2",
"D. c #D4D4D2",
"F. c #DAD6D2",
"G. c #D4D9D9",
"H. c #DDDCDB",
"J. c #D8D8D4",
"K. c #E1CFC2",
"L. c #E8D4C2",
"P. c #F4D7C3",
"I. c #F7DECB",
"U. c #E2DDD6",
"Y. c #DEE0DD",
"T. c #FBE2CD",
"R. c #E6E3DE",
"E. c #ECE1D9",
"W. c #FAEBDC",
"Q. c #CEE0E7",
"!. c #DDE3E5",
"~. c #E4E4E3",
"^. c #EAE6E4",
"/. c #E6E8E5",
"(. c #EAE9E5",
"). c #EAECED",
"_. c #F0EFEC",
"`. c #F3F1EF",
"'. c #F8F4ED",
"]. c #E7EEF1",
"[. c #ECF1F3",
"{. c #E7F1F5",
"}. c #F4F4F4",
"|. c #F8F5F3",
" X c #F7F8F7",
".X c #FBF9F3",
"XX c #F6F8F9",
"oX c #FFFFFF",
/* pixels */
"oXoXoXoXoXoXoXoXoXoXoXoXoXoXoXoXoXoXoXoXoXoXoXoXoXoXoXoXoXoXoXoX",
"oXoXoXoXoXoXoXoXoXoXoXoXoXoXoXoXoXoXoXoXoXoXoXoXoXoXoXoXoXoXoXoX",
"oXoXoXoXoXoXoXoXoXoXoXoXoXoXoXoXoXoXoXoXoXoXoXoXoXoXoXoXoXoXoXoX",
"oXoXoXoXoXoXoXXXoXXXoXoXoXoXoXoXoXoXoXoXoXoXoXoXoXoXoXoXoXoXoXoX",
"oXoXoXoXoXoX X~.XXXXXX`.{.{.{.[. XoXoXoXoXoXoXoXoXoXoXoXoXoXoXoX",
"oXoXoXoXoXoX!.M.D.H.j.i.g.f.l.l.m.Q.].XXoXoXoXoXoXoXoXoXoXoXoXoX",
"oXoXoXoXoXoXJ.=.:.X.R e.g.l.l.l.g.d.d.x.[.oXoXoXoXoXoXoXoXoXoX}.",
"oXoXoXoXoXoX).=.[ G R t.d.t.w.q.u.u.e.d.d.!.oXoXoXoXoXoXoXoXoXXX",
"oXoXoXoXoXoXoXH.X.D Q @.@.w.q.q.k.s.e.d.t.x.[.oXoXoXoXoXoXoXoXoX",
"oXoXoXoXoXoXoXoX%.P E W q.x.w.q.q.! Q Q Q q.x.oXoXoXoXoXoXoXoXoX",
"oXoXoXoXoXoXoXoX%.L P R ! y.Q E ..=.7.9.2.+.&. XoXoXoXoXoXoXoXoX",
"oXoXoXoXoXoXoXoXO.L Q R R Y +.C.(.|..X.XH.J.D.oXoXoXoXoXoXoXoXoX",
"oXoXoXoXoXoXoXXX..P $.T U M.9.( N..X.X/.7 w `.oXoXoXoXoXoXoXoXoX",
"oXoXoXoXoXoXoXXXE S L K N.`.( X v .XW.L.3 n `.XXoXoXoXoXoXoXoXoX",
"oXoXoXoXoXoXoX X#.I F 1.(.}.;.4 <.'.Z p V 0.T.XXoXoXoXoXoXoXoXoX",
"oXoXoXoXoXoXoXoXC.D / V.(.P.4.P._.`.6.{ Z.T.I.oXoXoXoXoXoXoXoXoX",
"oXoXoXoXoXoXoXoX}.E ` 2.J.K.4.I.'./././..X_.R.oXoXoXoXoXoXoXoXoX",
"oXoXoXoXoXoXoXoXoXY.f b -.B.F.~.(.R.R.E.9.C 3.oXoXoXoXoXoXoXoXoX",
"oXoXoXoXoXoXoXoXoXZ.= = y h m N B M M m j i M '.oXoXoXoXoXoXoXoX",
"oXoXoXoXoXoXoXoXU., & * ; - y u d s s i i y g E.oXoXoXoXoXoXoXoX",
"oXoXoXoXoXoXoX}.f $ G  .U t e q z 0 q e < i k C |.oXoXoXoXoXoXoX",
"oXoXoXoXoXoXoX^.x > T h.u.u.l.l.b.$.` f./ j j k K.oXoXoXoXoXoXoX",
"oXoXoXoXoXoXoXoX(.K 6 .. .u.m.m.b.l.d.l.$.f a 9.`.oXoXoXoXoXoXoX",
"oXoXoXoXoXoXoXoXoX+.* * H y.l.b.b.d.( &.s.Y 7..XoXoXoXoXoXoXoXoX",
"oXoXoXoXoXoXoXoXoX~.[ F [ %.%.p.p.a.,.a.j.S.XXoXoXoXoXoXoXoXoXoX",
"oXoXoXoXoXoXoXoXoX}.D.*.*.1.C.D.G.Y.H.D.D.~.`.XXoXoXoXoXoXoXoXoX",
"oXoXoXoXoXoX}.B.} ^ 0 > + 1 c ^ ( q 1 2 5 z b _ <.).oXoXoXoXoXoX",
"oXoXoXoXoXoX/.b , : $ #   o % + $ . o + * 1 4 3 9 A.oXoXoXoXoXoX",
"oXoXoXoXoXoXoX).B.-.) v 0 9 9 q c c c c b ) | <.J.XXoXoXoXoXoXoX",
"oXoXoXoXoXoXoXoXoXoXoX}.}.`._._._.}.).}. XXXoXoXoXoXoXoXoXoXoXoX",
"oXoXoXoXoXoXoXoXoXoXoXoXoXoXoXoXoXoXoXoXoXoXoXoXoXoXoXoXoXoXoXoX",
"oXoXoXoXoXoXoXoXoXoXoXoXoXoXoXoXoXoXoXoXoXoXoXoXoXoXoXoXoXoXoXoX"
};
