/* XPM */
static char *wall[] = {
/* columns rows colors chars-per-pixel */
"32 32 98 2 ",
"   c #4F5B6B",
".  c #545D6B",
"X  c #585F6C",
"o  c #556170",
"O  c #5D6979",
"+  c #626976",
"@  c #66707F",
"#  c #6C7483",
"$  c #6D7688",
"%  c #707584",
"&  c #747D8C",
"*  c #767F93",
"=  c #7C8494",
"-  c #7F899A",
";  c #818595",
":  c #838B9D",
">  c #838DA2",
",  c #8691A6",
"<  c #8B92A2",
"1  c #8796AF",
"2  c #8C96AB",
"3  c #9399A7",
"4  c #9397A8",
"5  c #939BAC",
"6  c #999EAE",
"7  c #8D9AB1",
"8  c #939EB4",
"9  c #9A9FB0",
"0  c #95A1B6",
"q  c #9CA3B2",
"w  c #95A3BB",
"e  c #99A6BC",
"r  c #9DA9BE",
"t  c #A2A7AE",
"y  c #A7A9AF",
"u  c #A3A6B3",
"i  c #A6A9B4",
"p  c #A4AABB",
"a  c #AAADBB",
"s  c #AEB2BC",
"d  c #B2B4BC",
"f  c #B7B9BF",
"g  c #99A7C0",
"h  c #9CABC3",
"j  c #A2AEC2",
"k  c #A4B0C5",
"l  c #ACB3C3",
"z  c #A4B4CB",
"x  c #ABB6CA",
"c  c #ADB9CD",
"v  c #B2B6C4",
"b  c #B5B8C5",
"n  c #BABBC5",
"m  c #B4BBCB",
"M  c #BCBFCA",
"N  c #ACBCD3",
"B  c #B1BED2",
"V  c #C0BFC8",
"C  c #BCC0CE",
"Z  c #B5C1D6",
"A  c #BCC4D5",
"S  c #B6C5DC",
"D  c #BAC6D9",
"F  c #BCC9DC",
"G  c #C3C4CD",
"H  c #C4C6D1",
"J  c #C4C9D4",
"K  c #CBCCD5",
"L  c #C1CBDB",
"P  c #CDCFD8",
"I  c #CFD2D6",
"U  c #CED1DC",
"Y  c #D2D4DD",
"T  c #D8D7DD",
"R  c #C2CFE1",
"E  c #C5D1E3",
"W  c #CAD5E4",
"Q  c #CFDAE8",
"!  c #D2D6E1",
"~  c #D4D9E4",
"^  c #DBDCE4",
"/  c #D4DDEA",
"(  c #D8DDE9",
")  c #DBE0E5",
"_  c #D7E0EC",
"`  c #DFE7F2",
"'  c #E1E2E7",
"]  c #E1E4EB",
"[  c #E6E8EF",
"{  c #EAEAEF",
"}  c #E5EAF2",
"|  c #ECEEF3",
" . c #ECF0F6",
".. c #EFF3F9",
"X. c #F2F3F6",
"o. c #F4F6F9",
"O. c #F6F8FB",
"+. c white",
/* pixels */
"+.+.+.+.+.+.+.+.+.+.+.+.+.+.+.+.+.+.+.+.+.+.+.+.+.+.+.+.+.+.+.+.",
"+.+.+.+.+.+.+.+.+.+.+.+.+.+.+.+.+.+.+.+.+.+.+.+.+.+.+.+.+.+.+.+.",
"+.+.+.+.+.+.+.+.+.+.+.O.O.o.+.+.+.O.| | O.+.+.+.+.+.+.+.+.+.+.+.",
"+.+.+.+.+.+.+.+.+.+.+.[ ] ] } O.+.O.~ ( ] } O.+.+.+.+.+.+.+.+.+.",
"+.+.+.+.+.+.+.+.O.O.X.T Y ~ ! ~ ( ( ! ! J B R o.+.+.+.+.+.+.+.+.",
"+.+.+.+.+.+.+.| ] [ ] U V l l j c M D L l j F } +.+.+.+.+.+.+.+.",
"+.+.+.+.+.+.O.^ ( ~ W V m m u 5 j k p 8 w c D W / | +.+.+.+.+.+.",
"+.+.+.+.+.+.O.^ V n B V b v k < 8 5 8 2 w z k c S / O.+.+.+.+.+.",
"+.+.+.+.+.+.o.' K v v q q < 4 % = p c 5 h B S z N S / } O.+.+.+.",
"+.+.+.O.{ | ' K n u d 4 4 ; * % u A p w B N z h h B N F Q O.+.+.",
"+.+.+.| K K H d i a a < ; ; ; l v k p m D g h z k h w h W O.+.+.",
"+.+.X.] K H H G b i i v a b m l a 4 8 p 8 , h N N g w N _ O.+.+.",
"+.O.T K G P V V a 6 n n V l v v m 9 > : - 8 g - h z z F ..+.+.+.",
"+.o.^ I b n V b d a 6 a l u M c g 8 8 * - g h w h Z S E  .+.+.+.",
"+.+.X.^ K n n d V a 4 l u 9 4 8 , > > * 7 7 h - h N S F F } +.+.",
"+.O.{ T V G f y v a a 6 > < < > 8 e > $ 1 g h g h z N g g E ..+.",
"+.+.^ G K G J C m t 0 q 5 q 6 X 5 j $ # : 2 > , 8 z Z z z Q ..+.",
"+.+.' P P H K C 9 3 p l 6 > 3 O u k ; v v : = 2 w w w N E Q ..+.",
"+.+.] Y T G G s 6 6 i v l x $   : J 5 5 & = p r w 0 w Z R W O.+.",
"+.o.X.^ P M C a l p < = l x C = & ^ & - r 2 x c r j k Z F E ..+.",
"+.+.+.X.^ Y Y J m C d < q 9 Y s & @ 3 J p l x c Z r 0 N N E o.+.",
"+.+.+.+.X.X.X.o.| o.+.) A C < y . + ) +.[ ( J A J E L ~ Q ` O.+.",
"+.+.+.+.+.+.+.+.+.+.+.O.X.O.I @ O H +.+.+.+.O.O.} _ _ } o.+.+.+.",
"+.+.+.+.+.+.+.+.+.+.+.+.+.+.+.y =  .+.+.+.+.+.+.+.O.O.+.+.+.+.+.",
"+.+.+.+.+.+.+.+.+.+.+.+.+.+.+.d = O.+.+.+.+.+.+.+.+.+.+.+.+.+.+.",
"+.+.+.+.+.+.+.+.+.+.+.+.+.+.+.d & o.+.+.+.+.+.+.+.+.+.+.+.+.+.+.",
"+.+.+.+.+.+.+.+.+.+.+.+.+.+.+.f @ { +.+.+.+.+.+.+.+.+.+.+.+.+.+.",
"+.+.+.+.+.+.+.+.+.+.+.+.+.+.+.i o ) +.+.+.+.+.+.+.+.+.+.+.+.+.+.",
"+.+.+.+.+.+.+.+.+.+.+.+.+.+.O.G 6 Y +.+.+.+.+.+.+.+.+.+.+.+.+.+.",
"+.+.+.+.+.+.+.+.+.+.+.+.+.+.+.+.+.+.+.+.+.+.+.+.+.+.+.+.+.+.+.+.",
"+.+.+.+.+.+.+.+.+.+.+.+.+.+.+.+.+.+.+.+.+.+.+.+.+.+.+.+.+.+.+.+.",
"+.+.+.+.+.+.+.+.+.+.+.+.+.+.+.+.+.+.+.+.+.+.+.+.+.+.+.+.+.+.+.+."
};
